<svg width="800" height="600" xmlns="http://www.w3.org/2000/svg">
  <rect width="800" height="600" fill="#e6ffed"/>
  <text x="400" y="80" font-family="Arial" font-size="32" text-anchor="middle" fill="#333">기후위기 현장 답사</text>
  <text x="400" y="130" font-family="Arial" font-size="20" text-anchor="middle" fill="#666">2024년 4월 10일</text>
  
  <!-- 배경: 강과 나무들 -->
  <rect x="0" y="350" width="800" height="250" fill="#7fc6ff"/>
  <rect x="0" y="350" width="800" height="20" fill="#3a8c3a"/>
  
  <!-- 나무들 -->
  <circle cx="100" cy="320" r="40" fill="#2e8b57"/>
  <rect x="90" y="320" width="20" height="60" fill="#8b4513"/>
  
  <circle cx="200" cy="300" r="50" fill="#3cb371"/>
  <rect x="190" y="300" width="20" height="80" fill="#8b4513"/>
  
  <circle cx="350" cy="310" r="45" fill="#2e8b57"/>
  <rect x="340" y="310" width="20" height="70" fill="#8b4513"/>
  
  <circle cx="500" cy="290" r="60" fill="#3cb371"/>
  <rect x="490" y="290" width="20" height="90" fill="#8b4513"/>
  
  <circle cx="650" cy="320" r="40" fill="#2e8b57"/>
  <rect x="640" y="320" width="20" height="60" fill="#8b4513"/>
  
  <!-- 참가자들 -->
  <circle cx="150" cy="400" r="15" fill="#ff6347"/>
  <circle cx="200" cy="420" r="15" fill="#4682b4"/>
  <circle cx="300" cy="410" r="15" fill="#ffd700"/>
  <circle cx="400" cy="400" r="15" fill="#9370db"/>
  <circle cx="500" cy="420" r="15" fill="#ff6347"/>
  <circle cx="600" cy="410" r="15" fill="#4682b4"/>
  
  <text x="400" y="550" font-family="Arial" font-size="14" text-anchor="middle" fill="#333">테스트용 이미지입니다</text>
</svg> 